<svg width="31" height="31" viewBox="0 0 31 31" fill="none" xmlns="http://www.w3.org/2000/svg">
<path d="M9 0.874878C4.51338 0.874878 0.875 4.51325 0.875 8.99988V21.9999C0.875 26.4865 4.51338 30.1249 9 30.1249H22C26.4866 30.1249 30.125 26.4865 30.125 21.9999V8.99988C30.125 4.51325 26.4866 0.874878 22 0.874878H9ZM25.25 4.12488C26.147 4.12488 26.875 4.85288 26.875 5.74988C26.875 6.64688 26.147 7.37488 25.25 7.37488C24.353 7.37488 23.625 6.64688 23.625 5.74988C23.625 4.85288 24.353 4.12488 25.25 4.12488ZM15.5 7.37488C19.9866 7.37488 23.625 11.0133 23.625 15.4999C23.625 19.9865 19.9866 23.6249 15.5 23.6249C11.0134 23.6249 7.375 19.9865 7.375 15.4999C7.375 11.0133 11.0134 7.37488 15.5 7.37488ZM15.5 10.6249C14.2071 10.6249 12.9671 11.1385 12.0529 12.0527C11.1386 12.967 10.625 14.2069 10.625 15.4999C10.625 16.7928 11.1386 18.0328 12.0529 18.947C12.9671 19.8613 14.2071 20.3749 15.5 20.3749C16.7929 20.3749 18.0329 19.8613 18.9471 18.947C19.8614 18.0328 20.375 16.7928 20.375 15.4999C20.375 14.2069 19.8614 12.967 18.9471 12.0527C18.0329 11.1385 16.7929 10.6249 15.5 10.6249Z" fill="white"/>
</svg>
