<svg width="29" height="29" viewBox="0 0 29 29" fill="none" xmlns="http://www.w3.org/2000/svg">
<path d="M25.7778 -0.000244141H3.22222C1.44194 -0.000244141 0 1.4417 0 3.22198V25.7775C0 27.5578 1.44194 28.9998 3.22222 28.9998H25.7778C27.5581 28.9998 29 27.5578 29 25.7775V3.22198C29 1.4417 27.5581 -0.000244141 25.7778 -0.000244141ZM24.0168 20.4351L21.2216 20.4738C21.2216 20.4738 20.619 20.5914 19.8296 20.0468C18.7839 19.3283 17.7979 17.4594 17.0294 17.7026C16.2497 17.9508 16.2738 19.6328 16.2738 19.6328C16.2738 19.6328 16.2803 19.9292 16.1014 20.1225C15.9081 20.3304 15.5295 20.3094 15.5295 20.3094H14.2777C14.2777 20.3094 11.5162 20.5382 9.08183 18.0007C6.42994 15.2344 4.08739 9.77437 4.08739 9.77437C4.08739 9.77437 3.95044 9.42959 4.09706 9.25398C4.263 9.05903 4.71089 9.0542 4.71089 9.0542L7.70272 9.0397C7.70272 9.0397 7.98467 9.08964 8.18767 9.23787C8.35361 9.36031 8.44867 9.5907 8.44867 9.5907C8.44867 9.5907 8.932 10.8168 9.57322 11.9268C10.8234 14.0905 11.4051 14.5642 11.8288 14.3322C12.4474 13.9939 12.2622 11.2743 12.2622 11.2743C12.2622 11.2743 12.2734 10.2867 11.9512 9.84687C11.6999 9.5037 11.2278 9.4022 11.02 9.37642C10.8508 9.35387 11.1263 8.96237 11.4856 8.78514C12.0237 8.52253 12.9759 8.50642 14.0988 8.5177C14.9737 8.52737 15.2266 8.58053 15.5682 8.66431C16.6009 8.91403 16.2497 9.87748 16.2497 12.1894C16.2497 12.9305 16.1159 13.9713 16.6492 14.3145C16.8796 14.4627 17.4403 14.337 18.8403 11.9526C19.5057 10.8216 20.0036 9.49242 20.0036 9.49242C20.0036 9.49242 20.1131 9.25559 20.2823 9.15409C20.4563 9.04937 20.6899 9.08159 20.6899 9.08159L23.8396 9.06226C23.8396 9.06226 24.7853 8.94787 24.94 9.37803C25.1011 9.82753 24.5872 10.8764 23.2999 12.5922C21.1877 15.4116 20.9525 15.149 22.707 16.7795C24.3826 18.3374 24.7289 19.0946 24.7869 19.1897C25.4797 20.3433 24.0168 20.4351 24.0168 20.4351Z" fill="white"/>
</svg>
