<svg width="66" height="66" viewBox="0 0 66 66" fill="none" xmlns="http://www.w3.org/2000/svg">
<path d="M20.5237 53.759C20.4445 54.3587 20.1956 54.9696 19.777 55.5919C19.3584 56.2141 18.855 56.8194 18.2666 57.4077C17.5539 58.1205 16.7676 58.6692 15.9077 59.0538C15.0366 59.4272 14.1202 59.5969 13.1585 59.563C12.1968 59.529 11.1956 59.2632 10.1547 58.7653C9.10254 58.2562 8.04471 57.4699 6.98122 56.4064C5.87247 55.2977 5.08051 54.2116 4.60534 53.1481C4.13016 52.062 3.89257 51.0324 3.89257 50.0595C3.89257 49.0638 4.08491 48.1474 4.46957 47.3102C4.85424 46.473 5.36336 45.7376 5.99692 45.104C6.67575 44.4252 7.26972 43.9105 7.77883 43.5597C8.27664 43.1977 8.7405 42.9262 9.17042 42.7451L10.0699 44.3234C9.26659 44.6062 8.36149 45.2511 7.35457 46.258C6.89071 46.7219 6.51736 47.265 6.23451 47.8872C5.95167 48.5095 5.82156 49.194 5.84419 49.9407C5.87813 50.676 6.09875 51.4624 6.50604 52.2996C6.91333 53.1368 7.56953 54.0079 8.47463 54.913C9.28921 55.7276 10.1038 56.3386 10.9184 56.7459C11.733 57.1531 12.5193 57.3851 13.2773 57.4416C14.0466 57.4869 14.7707 57.3738 15.4495 57.1022C16.1397 56.8194 16.7676 56.3951 17.3333 55.8294C17.8424 55.3203 18.2327 54.8282 18.5042 54.353C18.7871 53.8665 18.9794 53.414 19.0812 52.9954L20.5237 53.759ZM20.7832 39.8892L17.0327 43.6397L24.33 50.937L22.9724 52.2947L14.4871 43.8094L20.9529 37.3436L29.4382 45.8289L28.0805 47.1865L20.7832 39.8892ZM37.5697 36.3397C37.5018 36.9506 37.2869 37.5955 36.9248 38.2743C36.5741 38.9418 36.1103 39.5641 35.5333 40.1411C34.8884 40.786 34.2265 41.2442 33.5477 41.5157C32.8576 41.7759 32.1674 41.8664 31.4773 41.7872C30.7758 41.6967 30.0801 41.4535 29.3899 41.0575C28.6998 40.6615 28.0153 40.1241 27.3365 39.4453C25.8883 37.9971 25.1077 36.5716 24.9945 35.1687C24.8814 33.7658 25.4245 32.4647 26.6237 31.2655C27.0084 30.8808 27.4383 30.5414 27.9135 30.2472C28.3773 29.9418 28.8808 29.7551 29.4239 29.6872C29.9669 29.6193 30.5552 29.7098 31.1888 29.9587C31.8111 30.1963 32.4786 30.6715 33.1913 31.3843C33.5647 31.7576 33.9437 32.2045 34.3284 32.7249L28.8808 38.1725C29.3786 38.6703 29.8707 39.0606 30.3572 39.3435C30.8437 39.6263 31.3302 39.796 31.8167 39.8526C32.2919 39.8978 32.7727 39.8243 33.2592 39.632C33.7457 39.417 34.2378 39.0606 34.7356 38.5628C35.1203 38.1782 35.4371 37.7256 35.686 37.2052C35.9349 36.6847 36.065 36.2379 36.0763 35.8645L37.5697 36.3397ZM27.8286 32.4364C27.1611 33.104 26.7991 33.8167 26.7425 34.5747C26.6973 35.3214 27.0593 36.1587 27.8286 37.0864L32.0373 32.8777C31.1775 32.0178 30.4138 31.5823 29.7463 31.571C29.0675 31.5483 28.4283 31.8368 27.8286 32.4364ZM38.9921 28.6382L38.2114 29.4189L42.0298 33.2372L40.6722 34.5949L32.1869 26.1096L33.5445 24.752L37.3799 28.5873L37.872 27.62L36.9895 21.3069L38.466 19.8305L39.2466 25.872L39.0939 27.1448L40.6552 26.9412L47.3246 27.9424L45.6445 29.6225L38.9921 28.6382ZM46.8925 13.7798L44.2282 16.4442L51.5255 23.7416L50.1679 25.0992L42.8705 17.8019L40.2061 20.4662L39.0182 19.2783L45.7046 12.5919L46.8925 13.7798ZM47.0527 11.2438L47.9861 10.3104L49.2589 11.0741L49.3267 11.0062C49.191 10.35 49.2249 9.71645 49.4286 9.10551C49.6322 8.47194 49.9999 7.88928 50.5317 7.35754C51.663 6.22617 52.8397 5.71705 54.0615 5.83019C55.2834 5.94332 56.6524 6.75791 58.1684 8.27395C58.8812 8.98671 59.4299 9.72776 59.8146 10.4971C60.1992 11.2438 60.4198 11.9848 60.4764 12.7202C60.533 13.4556 60.4255 14.174 60.154 14.8755C59.8938 15.5656 59.4695 16.2049 58.8812 16.7932C58.4626 17.2118 58.1005 17.5172 57.7951 17.7096C57.5122 17.9019 57.1671 18.0773 56.7599 18.2357L60.2897 21.7655L58.9321 23.1232L47.0527 11.2438ZM51.465 8.80004C50.888 9.37704 50.5826 9.98798 50.5486 10.6329C50.5147 11.2551 50.7353 11.9396 51.2105 12.6863L55.4192 16.895C55.7812 16.8497 56.1376 16.7423 56.4883 16.5726C56.8277 16.3915 57.2124 16.0861 57.6423 15.6561C58.423 14.8755 58.7511 13.9704 58.6266 12.9409C58.5022 11.8887 57.8743 10.7969 56.7429 9.66554C56.279 9.20167 55.8208 8.82266 55.3683 8.52851C54.9044 8.22304 54.4519 8.0307 54.0106 7.95151C53.5694 7.84968 53.1338 7.86666 52.7039 8.00242C52.2853 8.12687 51.8723 8.39274 51.465 8.80004Z" fill="#E90000"/>
</svg>
